<svg xmlns="http://www.w3.org/2000/svg" width="33" height="32" fill="none">
  <path fill="#7c3aed" d="m14.818 17.614.046.096.062.127.03.063c.05.104.1.191.178.277.063.08.063.08.057.137-.039.102-.113.18-.181.262l-.096.119-.05.06a12 12 0 0 0-.195.25l-.036.047-.07.093-.399.518q-.41.532-.804 1.077l-.08-.014c-.252-.04-.493-.024-.715.113-.186.147-.264.315-.297.548a.82.82 0 0 0 .188.609c.232.197.435.227.73.21a.63.63 0 0 0 .404-.21q.066-.083.12-.175l.033-.055c.088-.217.033-.52-.056-.731-.006-.062-.006-.062.04-.13l.067-.078.074-.086.038-.044q.085-.105.165-.215.138-.186.283-.369.294-.376.581-.758l.219-.286.095-.123q.137-.182.27-.368c.1.017.188.044.282.086.146.06.29.092.446.118.003.306-.005.61-.016.916l-.005.147-.014.393-.009.247q-.029.854-.068 1.707l-.004.065-.006.127c-.072 1.497-.115 3.008.046 4.502.096.893-.462 1.818-.994 2.505q-.189.235-.388.463l-.04.045c-.627.716-1.392 1.241-2.264 1.62l-.065.029c-.348.15-.7.246-1.072.322l-.083.017c-1.55.322-3.235-.064-4.554-.923a6.4 6.4 0 0 1-1.72-1.665l-.043-.062a7 7 0 0 1-.716-1.34l-.025-.063a6 6 0 0 1-.272-.848l-.02-.081a9 9 0 0 1-.062-.293l-.014-.073a6.3 6.3 0 0 1-.118-1.294v-.289c0-.423.044-.823.132-1.236l.023-.107a6 6 0 0 1 .082-.322c.072-.265.165-.518.274-.77l.03-.067c.322-.732.917-1.872 1.703-2.186q.19-.062.384-.112c.084-.025.16-.055.24-.091.152-.063.31-.114.465-.167l.057-.02a28 28 0 0 1 1.034-.336c.244-.077.49-.145.737-.213q.316-.089.628-.19c.203-.066.41-.12.616-.176q.227-.06.45-.137c.171-.06.345-.108.52-.155q.407-.11.807-.242.345-.112.695-.213l.354-.105q.718-.217 1.44-.417.096-.027.191-.057a.7.7 0 0 1 .235-.023M18.011 17.612c.242.016.465.084.695.154l.122.036.555.166.512.153.06.018.365.107q.44.128.877.268.286.09.577.172.27.077.536.16.42.13.841.252c.431.126.861.252 1.29.387l.118.037a55 55 0 0 1 1.603.527q.345.117.682.255l.075.029a1 1 0 0 1 .25.174l.05.044c.156.137.281.291.407.456l.063.073c.204.239.36.502.516.775l.038.067c.581 1.029.78 2.126.78 3.296v.076c0 .526-.019 1.052-.18 1.557a5 5 0 0 0-.09.337 6 6 0 0 1-.42 1.158l-.032.07a6 6 0 0 1-.867 1.322l-.094.113c-.54.649-1.207 1.122-1.944 1.514l-.08.043c-.21.11-.423.194-.65.266l-.105.034c-1.525.477-3.246.38-4.668-.374a6.3 6.3 0 0 1-1.013-.671l-.082-.067a6.3 6.3 0 0 1-1.105-1.162l-.061-.08c-.434-.585-.97-1.38-.96-2.136l.001-.073c.003-.22.02-.438.037-.657.13-1.612.081-3.262-.02-4.875-.019-.312-.027-.624-.038-.936l-.012-.34a38 38 0 0 1-.019-1.554l.093-.025c.203-.053.404-.11.602-.18.164.179.311.367.454.563l.22.291.048.064.098.129.195.258.23.304.04.052.073.098.105.137a8 8 0 0 0 .207.26l.088.107c.096.12.096.12.093.196l-.026.057c-.077.21-.1.44-.037.658.027.059.057.11.095.162l.065.095c.164.166.306.21.54.214.23-.003.413-.049.578-.219.184-.232.203-.473.178-.763-.05-.197-.187-.327-.348-.44-.23-.129-.472-.095-.724-.058l-.046-.072c-.081-.123-.172-.239-.263-.356q-.18-.23-.353-.464a13 13 0 0 0-.29-.377q-.198-.252-.388-.506l-.075-.099-.072-.096a8 8 0 0 0-.3-.367c-.037-.062-.037-.062-.035-.12.034-.075.076-.14.123-.21.096-.148.164-.296.222-.464"/>
  <path fill="#c084fc" d="M16.48.001 16.692 0a4 4 0 0 1 1.158.15c.465.128.89.312 1.323.525v.058l.07.018c.138.053.248.131.368.214l.086.056q.391.26.733.583l.061.06c.295.283.577.567.816.899l.04.055q.144.203.281.41l.034.05a6.6 6.6 0 0 1 .814 1.78l.026.087c.33 1.11.518 2.375-.022 3.449q-.052.104-.101.209c-.167.347-.362.67-.576.99l-.062.094c-.234.353-.468.706-.72 1.048l-.124.17q-.271.376-.548.748-.174.232-.343.468-.195.27-.395.537a75 75 0 0 0-.682.934l-.432.597q-.207.288-.42.573l-.145.197q-.295.401-.6.793l-.066-.029-.09-.038-.087-.038a3 3 0 0 0-.364-.11l-.066-.018q-.01-.722-.015-1.445l-.007-.671-.006-.585q0-.155-.003-.31l-.002-.346-.003-.103a.7.7 0 0 1 .036-.258.8.8 0 0 1 .22-.136c.15-.08.219-.237.288-.387a.88.88 0 0 0-.136-.698.67.67 0 0 0-.401-.26c-.231-.027-.448-.034-.647.098-.164.14-.278.31-.299.526-.002.213-.002.387.127.566l.048.079c.094.097.094.097.361.212v3.719l-.467.116-.176.087c-.082-.003-.106-.019-.164-.077l-.046-.063-.052-.07-.056-.077-.058-.08-.12-.163-.166-.223a76 76 0 0 1-.872-1.194l-.284-.39q-.271-.376-.549-.748a30 30 0 0 1-.327-.45 29 29 0 0 0-.31-.423 73 73 0 0 1-.686-.936 31 31 0 0 1-.665-.945l-.054-.08c-.532-.787-1.115-1.667-1.121-2.648l-.002-.268v-.07c0-.513.056-.998.183-1.495l.063-.283a7 7 0 0 1 .667-1.6c.14-.256.297-.496.469-.732l.063-.088c.414-.558.89-1.074 1.457-1.48l.092-.068c.55-.39 1.155-.71 1.808-.891l.07-.02.231-.06.07-.019c.408-.097.844-.08 1.26-.08M6.52 7.07h.192c.394.001.77.023 1.153.122l.115.028c.6.144.6.144.846.293l.069.027c.316.128.76.382.932.687q.027.076.049.154c.224.773.746 1.504 1.203 2.155l.156.224q.508.733 1.038 1.45.104.14.206.28.287.395.595.77.124.152.241.307.196.255.4.5l.15.184.108.13q.143.172.282.346.179.216.364.428.18.207.357.417.105.125.216.246c.066.085.066.085.063.139-.036.087-.088.155-.145.23q-.03.044-.064.087l-.05.066a.9.9 0 0 1-.289-.099l-.082-.043-.088-.047-.356-.19-.26-.138a25 25 0 0 0-.63-.321c-.878-.436-.878-.436-1.192-.607a3 3 0 0 0-.312-.149 1 1 0 0 1-.284-.154.8.8 0 0 1-.028-.283c-.002-.174-.08-.311-.193-.44-.198-.186-.408-.228-.676-.22-.213.027-.357.141-.491.304-.15.225-.162.447-.112.71a.8.8 0 0 0 .354.435.9.9 0 0 0 .535.077c.122-.049.235-.11.35-.175.087-.029.087-.029.169.004l.1.051q.026.014.053.027l.168.088.169.086.153.078q.114.057.235.103c0 .02.114.065.114.065s.1.056.124.064c.127.045.077.054.196.115l.075.037.237.12.157.079.546.275.093.047.077.039q.105.05.215.091c0 .02.14.065.14.065l.125.062.124.062.186.062.094.062v.066l-.058.612q-.713.19-1.43.353c-.938.212-.938.212-1.865.461q-.225.062-.452.117-.652.162-1.294.361-.287.088-.578.165-.483.132-.959.291l-.111.037q-.792.26-1.577.535l-.077.027-.283.099a2 2 0 0 0-.227.093c-.338.158-.873.014-1.206-.1a5 5 0 0 1-.329-.14 4 4 0 0 0-.194-.078c-.587-.234-1.118-.578-1.613-.968l-.048-.038a4 4 0 0 1-.43-.381 2 2 0 0 0-.148-.133 2.6 2.6 0 0 1-.306-.322l-.066-.076c-.318-.372-.656-.807-.836-1.264l-.077-.15C.205 15.444 0 14.502 0 13.595L0 13.39c-.002-.407.042-.8.13-1.198l.02-.085c.06-.266.14-.522.235-.778l.032-.088c.167-.429.396-.85.666-1.223l.06-.084a6 6 0 0 1 1.112-1.192q.08-.063.156-.128a6.4 6.4 0 0 1 1.094-.722l.155-.09c.1-.055.2-.1.305-.144l.06-.025a8.3 8.3 0 0 1 1.408-.448l.058-.013c.343-.075.68-.105 1.03-.102M26.12 7.07h.07c.377.001.743.02 1.112.096l.077.016c.45.094.873.238 1.294.42q.152.063.307.12v.058l.101.027c.985.335 1.941 1.265 2.531 2.104l.034.048c.4.568.4.568.4.74h.058l.072.137.04.077a.44.44 0 0 1 .032.224h.058c.04.08.031.147.03.234h.057c.115.31.195.606.233.935.016.142.016.142.057.279.041.105.042.211.046.323l.004.072q.01.27.01.537l.001.072a.8.8 0 0 1-.033.264q0 .06.002.12a4 4 0 0 1-.147 1.165h-.057l.003.09c-.021.677-.556 1.477-.929 2.012l-.058.088h-.058l-.021.064a.8.8 0 0 1-.158.222 7 7 0 0 0-.231.261c-.833.963-1.962 1.633-3.168 2.001a2 2 0 0 0-.153.056c-.133.036-.263.034-.4.035l-.082.002a.9.9 0 0 1-.441-.1c-.09-.045-.18-.073-.275-.103q-.18-.058-.355-.128c-1.105-.455-2.277-.772-3.426-1.095l-.064-.018q-.36-.102-.723-.192-.21-.053-.417-.111c-.824-.23-1.66-.42-2.492-.617l-.187-.044-.741-.175-.005-.082-.008-.11-.007-.107a5 5 0 0 0-.038-.314c.462-.25.93-.485 1.4-.72q.545-.273 1.082-.559.26-.137.52-.269l.098-.049.093-.047.082-.042c.084-.039.165-.072.254-.095.07.05.07.05.145.117.184.108.369.114.578.087.246-.076.384-.223.517-.438.076-.201.075-.489-.01-.686a.94.94 0 0 0-.478-.394c-.275-.026-.497-.007-.716.168a.75.75 0 0 0-.21.299 2 2 0 0 0-.007.172c0 .104-.009.2-.05.295-.118.1-.246.148-.388.203-.143.059-.28.132-.417.202l-.18.091q-.29.149-.578.303c-.403.216-.808.43-1.218.634l-.253.13-.072.037-.138.073a3 3 0 0 1-.17.08c-.1-.034-.114-.059-.173-.143a1.3 1.3 0 0 0-.174-.208c.041-.126.1-.2.19-.296q.147-.157.282-.325a13 13 0 0 1 .324-.387q.195-.226.384-.46.087-.107.176-.212.228-.27.438-.553.166-.22.34-.434.227-.281.44-.574l.122-.163a47 47 0 0 0 1.058-1.47c.907-1.265.907-1.265 1.57-2.666.108-.303.214-.46.49-.636l.1-.067c.434-.283.957-.532 1.475-.592.097-.001.097-.001.132-.042.327-.058.655-.069.987-.067"/>
</svg>
